<svg xmlns="http://www.w3.org/2000/svg" version="1.1" xmlns:xlink="http://www.w3.org/1999/xlink" xmlns:svgjs="http://svgjs.dev/svgjs" width="1000" height="204" viewBox="0 0 1000 204"><g transform="matrix(1,0,0,1,-0.6060606060606233,0.1657438331158403)"><svg viewBox="0 0 396 81" data-background-color="#1f0f53" preserveAspectRatio="xMidYMid meet" height="204" width="1000" xmlns="http://www.w3.org/2000/svg" xmlns:xlink="http://www.w3.org/1999/xlink"><g id="tight-bounds" transform="matrix(1,0,0,1,0.2400000000000091,-0.06581005138423279)"><svg viewBox="0 0 395.52 81.13162010276847" height="81.13162010276847" width="395.52"><g><svg viewBox="0 0 654.9296497792129 134.3434049856551" height="81.13162010276847" width="395.52"><g><rect width="8.76644493777158" height="97.69545731590692" x="227.6943961038194" y="18.32397383487409" fill="#ffdb99" opacity="1" stroke-width="0" stroke="transparent" fill-opacity="1" class="rect-o$-0" data-fill-palette-color="primary" rx="1%" id="o$-0" data-palette-color="#ffdb99"></rect></g><g transform="matrix(1,0,0,1,259.40964977921294,18.566997360535545)"><svg viewBox="0 0 395.52 97.20941026458401" height="97.20941026458401" width="395.52"><g id="textblocktransform"><svg viewBox="0 0 395.52 97.20941026458401" height="97.20941026458401" width="395.52" id="textblock"><g><svg viewBox="0 0 395.52 97.20941026458401" height="97.20941026458401" width="395.52"><g transform="matrix(1,0,0,1,0,0)"><svg width="395.52" viewBox="-1.35 -38.3 162.09 38.55" height="97.20941026458401" data-palette-color="#ffdb99"><g class="undefined-text-0" data-fill-palette-color="primary" id="text-0"><path d="M14.3-13.3Q13.85-11.1 13.2-8.72 12.55-6.35 11.48-4.42 10.4-2.5 8.88-1.23 7.35 0.05 5.25 0.05L5.25 0.05Q3.85 0.05 2.23-0.55 0.6-1.15-1.35-2.6L-1.35-2.6 2.1-10.3Q2.35-9.8 3.08-9.43 3.8-9.05 4.65-9.05L4.65-9.05Q5.25-9.05 5.73-10.05 6.2-11.05 6.55-12.38 6.9-13.7 7.1-15.1 7.3-16.5 7.4-17.35L7.4-17.35Q8.35-22.2 9.2-27.03 10.05-31.85 11.2-36.65L11.2-36.65Q13.45-36.85 15.63-37.27 17.8-37.7 20-38.3L20-38.3Q19.25-35.75 18.45-32.5 17.65-29.25 16.9-25.85 16.15-22.45 15.48-19.18 14.8-15.9 14.3-13.3L14.3-13.3ZM30.5-2.45L14.35 0.05 20.9-35.5 36.7-36.85Q36.35-35.75 36.1-34.6L36.1-34.6Q35.85-33.65 35.62-32.63 35.4-31.6 35.25-30.8L35.25-30.8Q34.75-30.75 33.82-30.73 32.9-30.7 31.85-30.68 30.8-30.65 29.72-30.65 28.65-30.65 27.85-30.65L27.85-30.65 26.1-21.7Q27.65-21.8 29-21.85L29-21.85Q30.1-21.9 31.25-21.9 32.4-21.9 32.95-21.95L32.95-21.95Q32.75-20.55 32.57-19.2 32.4-17.85 32.15-16.45L32.15-16.45Q31.65-16.4 30.52-16.38 29.4-16.35 28.25-16.3L28.25-16.3Q26.95-16.25 25.4-16.2L25.4-16.2 23.7-7 31-8.15 30.5-2.45ZM38.59-1.45L31.3 0.25Q32.7-6.8 34-13.5L34-13.5Q34.5-16.3 35.07-19.38 35.65-22.45 36.15-25.43 36.65-28.4 37.07-31.18 37.5-33.95 37.75-36.25L37.75-36.25Q39.3-36.35 40.75-36.45L40.75-36.45Q42.05-36.55 43.4-36.63 44.75-36.7 45.8-36.8L45.8-36.8Q46.45-32.95 46.95-29.45L46.95-29.45Q47.2-27.95 47.47-26.33 47.75-24.7 48-23.2 48.25-21.7 48.5-20.33 48.75-18.95 49-17.9L49-17.9Q49.2-18.95 49.45-20.33 49.7-21.7 50-23.23 50.3-24.75 50.62-26.35 50.95-27.95 51.25-29.45L51.25-29.45Q52-32.95 52.8-36.75L52.8-36.75 58.9-37.5Q57.2-30 55.9-23.3L55.9-23.3Q55.3-20.4 54.72-17.45 54.15-14.5 53.65-11.75 53.15-9 52.8-6.68 52.45-4.35 52.25-2.75L52.25-2.75Q52.09-2.75 51.07-2.53 50.05-2.3 48.72-2 47.4-1.7 46.07-1.38 44.75-1.05 44.09-0.85L44.09-0.85Q43.75-4.9 43.34-8.55L43.34-8.55Q43.2-10.1 43-11.75 42.8-13.4 42.62-14.9 42.45-16.4 42.27-17.73 42.09-19.05 41.95-19.95L41.95-19.95Q41.8-19.05 41.55-17.75 41.3-16.45 41.05-14.98 40.8-13.5 40.55-11.93 40.3-10.35 40-8.85L40-8.85Q39.34-5.3 38.59-1.45L38.59-1.45Z" fill="#ffdb99" data-fill-palette-color="primary"></path><path d="M67.4-1.65L58.75 0.05Q60.25-6.7 61.6-13.15L61.6-13.15Q62.15-15.85 62.75-18.85 63.35-21.85 63.9-24.75 64.45-27.65 64.95-30.35 65.45-33.05 65.8-35.3L65.8-35.3Q67.25-35.75 68.65-36.08 70.05-36.4 71.53-36.65 73-36.9 74.3-36.9L74.3-36.9Q76.55-36.9 78.08-36.15 79.6-35.4 80.55-34.13 81.5-32.85 81.9-31.15 82.3-29.45 82.3-27.5L82.3-27.5Q82.3-24.7 81.28-22.1 80.25-19.5 78.53-17.48 76.8-15.45 74.58-14.25 72.35-13.05 69.95-13.05L69.95-13.05 69.4-13.05Q69-11.35 68.65-9.35 68.3-7.35 68.05-5.65L68.05-5.65Q67.7-3.65 67.4-1.65L67.4-1.65ZM72.7-30.85Q72.15-27.55 71.6-24.6 71.05-21.65 70.4-18.3L70.4-18.3Q71.2-18.5 72.08-19.23 72.95-19.95 73.7-21.13 74.45-22.3 74.9-23.85 75.35-25.4 75.35-27.1L75.35-27.1Q75.35-28.95 74.53-29.9 73.7-30.85 72.7-30.85L72.7-30.85ZM94.4-2.45L78.25 0.05 84.8-35.5 100.6-36.85Q100.25-35.75 100-34.6L100-34.6Q99.75-33.65 99.52-32.63 99.3-31.6 99.15-30.8L99.15-30.8Q98.65-30.75 97.72-30.73 96.8-30.7 95.75-30.68 94.7-30.65 93.62-30.65 92.55-30.65 91.75-30.65L91.75-30.65 90-21.7Q91.55-21.8 92.9-21.85L92.9-21.85Q94-21.9 95.15-21.9 96.3-21.9 96.85-21.95L96.85-21.95Q96.65-20.55 96.47-19.2 96.3-17.85 96.05-16.45L96.05-16.45Q95.55-16.4 94.42-16.38 93.3-16.35 92.15-16.3L92.15-16.3Q90.85-16.25 89.3-16.2L89.3-16.2 87.6-7 94.9-8.15 94.4-2.45ZM103.2-2.05L95.1 0.05Q96.45-6.6 97.7-12.95L97.7-12.95Q98.15-15.65 98.7-18.57 99.25-21.5 99.72-24.38 100.2-27.25 100.62-29.93 101.05-32.6 101.3-34.8L101.3-34.8Q104.15-35.7 107.45-36.13 110.75-36.55 114-36.55L114-36.55Q115.95-36.55 117.22-36.1 118.5-35.65 119.22-34.83 119.95-34 120.25-32.9 120.55-31.8 120.55-30.45L120.55-30.45Q120.55-28.45 119.85-26.53 119.15-24.6 117.97-22.88 116.8-21.15 115.27-19.73 113.75-18.3 112-17.4L112-17.4Q112.9-15.4 113.92-13.03 114.95-10.65 115.85-8.5L115.85-8.5Q116.85-6 117.9-3.5L117.9-3.5 110.15-0.8Q109.15-4.25 108.35-7.3L108.35-7.3Q108-8.55 107.65-9.88 107.3-11.2 107-12.38 106.7-13.55 106.5-14.45 106.3-15.35 106.25-15.85L106.25-15.85 105.6-15.65Q105.3-14.05 104.87-11.75 104.45-9.45 104.1-7.3L104.1-7.3Q103.65-4.75 103.2-2.05L103.2-2.05ZM108.45-29.6L106.85-21.65Q107.8-21.75 109.17-22.45 110.55-23.15 111.8-24.13 113.05-25.1 113.95-26.15 114.85-27.2 114.85-28L114.85-28Q114.85-28.55 114.5-28.88 114.15-29.2 113.52-29.38 112.9-29.55 112.15-29.6 111.4-29.65 110.6-29.65L110.6-29.65Q110.05-29.65 109.47-29.63 108.9-29.6 108.45-29.6L108.45-29.6ZM133.64-2.45L117.49 0.05 124.04-35.5 139.84-36.85Q139.49-35.75 139.24-34.6L139.24-34.6Q138.99-33.65 138.77-32.63 138.54-31.6 138.39-30.8L138.39-30.8Q137.89-30.75 136.97-30.73 136.04-30.7 134.99-30.68 133.94-30.65 132.87-30.65 131.79-30.65 130.99-30.65L130.99-30.65 129.24-21.7Q130.79-21.8 132.14-21.85L132.14-21.85Q133.24-21.9 134.39-21.9 135.54-21.9 136.09-21.95L136.09-21.95Q135.89-20.55 135.72-19.2 135.54-17.85 135.29-16.45L135.29-16.45Q134.79-16.4 133.67-16.38 132.54-16.35 131.39-16.3L131.39-16.3Q130.09-16.25 128.54-16.2L128.54-16.2 126.84-7 134.14-8.15 133.64-2.45ZM155.69-2Q155.24-2 153.79-1.95 152.34-1.9 150.37-1.8 148.39-1.7 146.09-1.55 143.79-1.4 141.59-1.23 139.39-1.05 137.52-0.85 135.64-0.65 134.54-0.45L134.54-0.45 134.59-7.75 148.79-27.1Q147.94-27.1 146.39-26.93 144.84-26.75 143.27-26.55 141.69-26.35 140.54-26.15L140.54-26.15 139.34-26.05 140.29-33.9 160.74-35.35 159.44-28.45 145.79-9.05Q146.79-9.05 148.47-9.15 150.14-9.25 151.94-9.35 153.74-9.45 155.84-9.6L155.84-9.6 155.69-2Z" fill="#ff5db2" data-fill-palette-color="secondary"></path></g></svg></g></svg></g></svg></g></svg></g><g><svg viewBox="0 0 204.74558736619747 134.3434049856551" height="134.3434049856551" width="204.74558736619747"><g><svg xmlns="http://www.w3.org/2000/svg" xmlns:xlink="http://www.w3.org/1999/xlink" version="1.1" x="0" y="0" viewBox="92.40000000000002 124 183.8 120.59999999999997" style="enable-background:new 0 0 368.5 368.5;" xml:space="preserve" height="134.3434049856551" width="204.74558736619747" class="icon-icon-0" data-fill-palette-color="accent" id="icon-0"><path d="M225.3 204.3l5.9-15.6 45-43.1-1.2-3.3 0 0-0.5-1.2-0.6-1.5 0 0-2.4-6.3-9.6-4.5-10.4 0.7-9.6-5.5-9.7 5.6-53.8 10.7-36.3 17.9-25.7 29.6-17.7-2.3-4 8.9-0.9 1.9-0.1 1-1.3 9.2 24.4 32.6 56.1 5.5h29.5v-5.9l-1.6-1.1 6.3-1 9.5 7.9h5.7l1.6-3.4-12.7-12.9-27.2 2.9 12.6-5.5 14.1-12.1 20 25.5h32.6v-6.4l-18.3-7.9L225.3 204.3zM260.4 236.3h-28.2l-19.7-25.2v-26.4h9.2l6.5 3.8-6.2 16.4 21.2 22.2 17.3 7.6v1.6H260.4zM209.6 211l-14.2 12.3-17.8 7.7 6.5-14.5-5.3-9.2-17.2-6.7 0 0 29.9-1.8 17.8-24.3 63-30.9 0 0 0.4 1.2-43 41.3-7.3-4.2h-12.8L209.6 211 209.6 211zM231.2 132.7v8l-28.6 14.8-67.9 34.9-14.9-2 23.8-27.7 35.6-17.6L231.2 132.7zM207.4 172.2L190 196l-2.7 0.2-32.2 2 0 0-11.5-4.5-5-2 0 0 65.6-33.8 28.4-14.6 9.3 5.4 10.7-6.2v-10.2l8.7-0.6 7.9 3.7 2.1 5.5L207.4 172.2zM249.7 140.8l-7.8 4.5-7.8-4.5v-9l7.8-4.5 7.8 4.5V140.8zM134.6 193.3l13.6 5.3 0 0 28.6 11.1 4 7-7.1 15.8-7.3 1.3-42.6-15.3L97 196.4l3.5-7.7L134.6 193.3zM210.2 231.4l10.1 10.4h-2.7l-9.7-8.1-15.1 2.3 6.7 4.3v1.4H173l-54.7-5.4-22.9-30.6 0.9-6.3 25.9 21.5 43.9 15.9 6.2-1.1 2.6-0.5h0.2L210.2 231.4z" fill="#ff5db2" data-fill-palette-color="accent"></path></svg></g></svg></g></svg></g><defs></defs></svg><rect width="395.52" height="81.13162010276847" fill="none" stroke="none" visibility="hidden"></rect></g></svg></g></svg>